<?xml version="1.0" standalone="no"?><!DOCTYPE svg PUBLIC "-//W3C//DTD SVG 1.1//EN" "http://www.w3.org/Graphics/SVG/1.1/DTD/svg11.dtd"><svg t="1770262790482" class="icon" viewBox="0 0 1152 1024" version="1.1" xmlns="http://www.w3.org/2000/svg" p-id="16022" xmlns:xlink="http://www.w3.org/1999/xlink" width="225" height="200"><path d="M980.012 768.29c-17.317-17.294-41.673-28.189-68.599-28.189h-90.39c-26.922 0-50.65 10.895-68.599 28.189-17.317 17.939-28.198 41.658-28.198 68.585v90.352c0 26.926 10.881 51.275 28.198 68.59 17.95 17.293 41.678 28.182 68.599 28.182h90.39c26.927 0 51.282-10.89 68.599-28.182 17.317-17.315 28.203-41.665 28.203-68.59v-90.352c0-26.927-10.887-50.646-28.203-68.585z m-29.485 158.937c0 10.895-4.503 20.506-11.542 27.558-7.06 7.056-16.663 11.547-27.574 11.547h-90.39c-10.91 0-20.513-4.49-27.574-11.547-7.04-7.052-10.89-16.663-10.89-27.558v-90.352c0-10.89 3.85-20.502 10.89-27.558 7.06-7.051 16.663-10.91 27.574-10.91h90.39c10.91 0 20.513 3.86 27.574 10.91 7.039 7.051 11.542 16.668 11.542 27.558v90.352zM549.851 740.1h-90.413c-26.905 0-51.282 10.895-68.577 28.189-17.95 17.939-28.205 41.658-28.205 68.585v90.352c0 26.926 10.257 51.275 28.205 68.59 17.295 17.293 41.678 28.182 68.577 28.182h90.413c26.266 0 50.65-10.89 68.593-28.182 17.3-17.315 28.209-41.665 28.209-68.59v-90.352c0-26.927-10.91-50.646-28.209-68.585-17.943-17.294-42.327-28.189-68.593-28.189z m38.455 187.127c0 10.895-3.843 20.506-10.905 27.558-7.038 7.056-17.295 11.547-27.55 11.547h-90.413c-10.888 0-20.513-4.49-27.552-11.547-7.039-7.052-11.542-16.663-11.542-27.558v-90.352c0-10.89 4.502-20.502 11.542-27.558 7.039-7.051 16.665-10.91 27.552-10.91h90.413c10.257 0 20.513 3.86 27.55 10.91 7.062 7.051 10.905 16.668 10.905 27.558v90.352z m30.138-882.493c-17.943-17.304-42.327-28.199-68.593-28.199h-90.413c-26.899 0-51.282 10.895-68.577 28.199-17.95 17.946-28.205 42.3-28.205 68.575v90.363c0 26.92 10.257 51.275 28.205 68.579 17.295 17.946 41.678 28.199 68.577 28.199h90.413c26.266 0 50.65-10.254 68.593-28.199 17.3-17.304 28.209-41.659 28.209-68.579v-90.363c0-26.274-10.91-50.635-28.209-68.575z m-30.138 158.939c0 10.894-3.843 20.506-10.905 27.557-7.038 7.051-17.295 11.541-27.55 11.541h-90.413c-10.888 0-20.513-4.49-27.552-11.541-7.039-7.052-11.542-16.663-11.542-27.557v-90.364c0-10.253 4.502-20.507 11.542-27.557 7.039-6.409 16.665-10.89 27.552-10.89h90.413c10.257 0 20.513 3.839 27.55 10.89 7.062 7.05 10.905 17.304 10.905 27.557v90.364zM113.908 678.562c0 8.333 3.217 15.385 8.345 20.506 5.123 5.143 12.166 8.334 20.508 8.334 7.693 0 15.384-3.192 20.513-8.334 5.127-5.12 8.323-12.172 8.323-20.5V526.675H475.47v151.892c0 8.327 3.217 15.379 8.345 20.5 5.129 5.143 12.822 8.986 20.513 8.986 8.324 0 15.385-3.843 20.513-8.986 5.127-5.12 8.341-12.172 8.341-20.5V526.675h303.879v151.887c0 8.333 3.195 15.385 8.972 20.506 5.127 5.143 12.166 8.986 20.512 8.986 7.693 0 14.731-3.843 20.513-8.986 5.129-5.12 8.324-12.172 8.324-20.506V497.841c0-7.694-3.195-15.385-8.324-20.507-5.781-5.131-12.82-8.333-20.513-8.333H533.814V361.975c0-7.694-3.844-14.745-8.971-20.506-5.127-5.134-12.189-8.335-20.513-8.335-7.692 0-15.384 3.202-20.513 8.335-5.127 5.761-8.345 12.812-8.345 20.506v107.026H142.768c-8.347 0-15.385 3.202-20.513 8.333-5.127 5.121-8.999 12.814-8.999 20.507h0.654v180.721z m73.727 61.538H97.221c-26.903 0-50.627 10.895-68.577 28.189C11.327 786.228 0.44 809.947 0.44 836.874v90.352c0 26.926 10.888 51.275 28.204 68.59 17.95 17.293 41.674 28.182 68.577 28.182h90.414c26.92 0 51.275-10.89 68.592-28.182 17.95-17.315 28.205-41.665 28.205-68.59v-90.352c0-26.927-10.257-50.646-28.205-68.585-17.317-17.294-41.672-28.189-68.592-28.189z m39.087 187.127c0 10.895-4.473 20.506-11.513 27.558-7.066 7.056-16.691 11.547-27.573 11.547H97.222c-10.255 0-20.512-4.49-27.55-11.547-7.045-7.052-10.91-16.663-10.91-27.558v-90.352c0-10.89 3.865-20.502 10.91-27.558 7.039-7.051 16.663-10.91 27.55-10.91h90.414c10.881 0 20.508 3.86 27.573 10.91 7.039 7.051 11.513 16.668 11.513 27.558v90.352z" p-id="16023"></path></svg>