<?xml version="1.0" standalone="no"?><!DOCTYPE svg PUBLIC "-//W3C//DTD SVG 1.1//EN" "http://www.w3.org/Graphics/SVG/1.1/DTD/svg11.dtd"><svg t="1757237553483" class="icon" viewBox="0 0 1033 1024" version="1.1" xmlns="http://www.w3.org/2000/svg" p-id="6428" xmlns:xlink="http://www.w3.org/1999/xlink" width="201.7578125" height="200"><path d="M410.069802 1023.496641l-21.812224-25.503523c110.067835-94.463706 111.577913-320.639685 111.577913-322.820908v-419.465836h33.557267v419.465836c0 10.402753-1.342291 244.296903-123.322956 348.324431zM499.835491 189.095199h33.557267v33.557267h-33.557267zM499.835491 4.530231h33.557267v151.007701h-33.557267z" fill="#333333" p-id="6429"></path><path d="M506.882517 661.900311l503.426118-352.250631 19.245093 27.500181-503.442897 352.233852z" fill="#333333" p-id="6430"></path><path d="M917.287891 826.515484c-1.342291 0-134.229068-16.778633-199.330165-16.778633-82.718663 0-166.444044-45.637883-201.343602-92.282484-34.899558 46.644601-118.624939 92.282484-201.343601 92.282484-65.268884 0-197.987875 16.778633-199.330166 16.778633l-12.583975-29.698181a1020.140914 1020.140914 0 0 0 151.007701-163.759463c-74.664919-33.557267-110.906767-93.289202-137.920367-138.423726-5.872522-9.899394-11.577257-19.295428-16.778633-27.684745C79.698509 436.24447 0 334.733738 0 333.559233l18.624283-26.174668a505.204653 505.204653 0 0 0 88.758971 16.778633 830.710143 830.710143 0 0 1 94.463707 16.778634 496.983123 496.983123 0 0 1 79.530722 30.033754c31.208258 13.926266 63.255448 28.355891 76.678355 21.644437 7.550385-3.691299 13.25512-36.074062 17.785351-62.080944a540.775356 540.775356 0 0 1 58.893004-182.887105A735.407505 735.407505 0 0 0 500.506636 0h32.382763a738.259872 738.259872 0 0 0 65.604456 147.316402 540.775356 540.775356 0 0 1 58.893004 182.887104c4.530231 26.006882 10.402753 58.389644 17.785351 62.080944 13.25512 6.711453 45.470097-7.718171 76.678355-21.644437a496.983123 496.983123 0 0 1 79.530723-30.033754 830.710143 830.710143 0 0 1 94.463706-16.778633 505.204653 505.204653 0 0 0 88.758971-16.778634l18.624283 26.174668c0 1.006718-79.698509 102.853023-100.6718 133.22235-5.536949 8.389317-11.241684 17.785351-16.778634 27.684745-27.0136 45.30231-63.255448 105.705391-137.920367 138.423726a1021.315419 1021.315419 0 0 0 151.007701 163.759463z m-383.895133-151.007701c0 31.376045 89.26233 100.671801 184.564968 100.671801 40.939866 0 105.034245 6.040308 151.007701 10.738325A1240.612158 1240.612158 0 0 1 738.259872 635.071276l8.389317-25.671309c77.517287-25.839096 112.752417-84.732099 141.108307-132.047845 6.208094-10.402753 12.080616-20.302146 17.953138-29.027036 12.919548-19.295428 47.315746-64.765525 72.483697-97.651647-15.268556 2.684581-31.208258 4.698017-47.483533 6.87924a810.911355 810.911355 0 0 0-90.772407 15.604129 466.613796 466.613796 0 0 0-73.993774 28.188104C723.662461 419.465836 687.923972 436.24447 660.07144 422.318204 637.588071 410.908733 632.218909 381.042766 624.165165 335.572669a512.419466 512.419466 0 0 0-55.033918-171.64542 859.401606 859.401606 0 0 1-52.517123-108.725545 859.401606 859.401606 0 0 1-52.517123 108.725545A512.419466 512.419466 0 0 0 409.063084 335.572669c-8.053744 45.134524-13.25512 75.000492-35.906276 86.242176C345.639849 436.24447 309.565787 419.465836 268.458135 401.344912a466.613796 466.613796 0 0 0-73.993773-28.188104 810.911355 810.911355 0 0 0-90.772407-15.604129c-16.778633-2.181222-32.214976-4.362445-47.483533-6.87924 25.16795 33.557267 59.564149 78.188432 72.483697 97.651647 5.872522 8.892676 11.745043 18.624283 17.953137 29.027036 28.355891 47.315746 63.591021 106.20875 141.108308 132.047845l8.389317 25.671309a1241.618876 1241.618876 0 0 1-130.369982 152.01442c45.30231-4.865804 109.39669-10.738325 151.007701-10.738326 95.302638 0 184.564968-69.295756 184.564968-100.671801z" fill="#333333" p-id="6431"></path><path d="M2.986597 336.143143l19.127642-27.516959 503.828805 350.237195-19.127642 27.516959z" fill="#333333" p-id="6432"></path><path d="M122.316238 824.502048l-16.778634-29.027036c8.389317-4.865804 206.880551-119.46387 409.73423-136.41029l2.852367 33.557267c-195.47108 16.107488-393.794527 130.705555-395.807963 131.880059z" fill="#333333" p-id="6433"></path><path d="M910.91201 824.502048c-2.013436-1.174504-201.343602-115.772571-395.640176-132.047845l2.852367-33.557267c202.853679 16.778633 401.344912 131.544486 409.734229 136.41029z" fill="#333333" p-id="6434"></path></svg>